<svg xmlns="http://www.w3.org/2000/svg" viewBox="0 0 120 120" role="img" aria-labelledby="title desc">
  <title id="title">Готический череп когитатора</title>
  <desc id="desc">Стилизованный фронтальный череп в металлическом корпусе</desc>
  <defs>
    <linearGradient id="bone" x1="0" y1="0" x2="0" y2="1">
      <stop offset="0" stop-color="#d8d2bd"/>
      <stop offset=".55" stop-color="#a9a58f"/>
      <stop offset="1" stop-color="#706d60"/>
    </linearGradient>
    <linearGradient id="metal" x1="0" y1="0" x2="1" y2="1">
      <stop offset="0" stop-color="#6f7068"/>
      <stop offset=".45" stop-color="#2d2f2b"/>
      <stop offset="1" stop-color="#10110f"/>
    </linearGradient>
    <filter id="glow" x="-50%" y="-50%" width="200%" height="200%">
      <feGaussianBlur stdDeviation="2.2" result="b"/>
      <feMerge><feMergeNode in="b"/><feMergeNode in="SourceGraphic"/></feMerge>
    </filter>
  </defs>

  <path fill="none" stroke="url(#metal)" stroke-width="8" d="M12 60C12 28 32 12 60 12s48 16 48 48-20 48-48 48S12 92 12 60Z"/>
  <path fill="#171814" stroke="#8f7a55" stroke-width="2" d="M22 57c0-24 15-38 38-38s38 14 38 38c0 14-5 24-15 31v14H37V88c-10-7-15-17-15-31Z"/>

  <path fill="url(#bone)" stroke="#282922" stroke-width="3" d="M60 24c-20 0-31 13-31 31 0 12 5 21 13 27l2 13h8v-8h6v8h5v-8h6v8h8l2-13c8-6 13-15 13-27 0-18-11-31-32-31Z"/>

  <path fill="#10120f" d="M38 52c0-7 5-12 13-12 7 0 10 5 9 11-1 8-5 13-12 13-6 0-10-5-10-12Zm44 0c0-7-5-12-13-12-7 0-10 5-9 11 1 8 5 13 12 13 6 0 10-5 10-12Z"/>
  <circle cx="48" cy="52" r="4.2" fill="#d23c32" filter="url(#glow)"/>
  <circle cx="72" cy="52" r="4.2" fill="#d23c32" filter="url(#glow)"/>

  <path fill="#161712" d="M60 58c-5 6-7 11-7 15 0 4 3 6 7 6s7-2 7-6c0-4-2-9-7-15Z"/>
  <path fill="#2a2b24" d="M46 82h28v13H46z"/>
  <path stroke="#8e8a79" stroke-width="2" d="M52 82v13m8-13v13m8-13v13"/>

  <path fill="none" stroke="#9a6e32" stroke-width="3" d="M14 42h13m66 0h13M14 78h13m66 0h13"/>
  <circle cx="16" cy="60" r="4" fill="#d23c32"/>
  <circle cx="104" cy="60" r="4" fill="#d23c32"/>
</svg>
