<svg xmlns="http://www.w3.org/2000/svg" viewBox="0 0 500 750"><defs><pattern id="grain" width="8" height="8" patternUnits="userSpaceOnUse"><path d="M1 1h1M4 5h1" stroke="#b39865" stroke-opacity=".07"/></pattern></defs><rect x="20" y="20" width="460" height="710" fill="#221112" stroke="#8d7150"/><rect x="32" y="32" width="436" height="686" fill="none" stroke="#6e523b"/><path d="M66 130V76h110M324 76h110v54M66 620v54h110M324 674h110v-54" stroke="#ac8c5c" fill="none"/><path d="M58 325q-30 50 0 100m384-100q30 50 0 100" fill="none" stroke="#876843"/><path d="M72 230q30-48 12-96m344 96q-30-48-12-96M72 520q30 48 12 96m344-96q-30 48-12 96" fill="none" stroke="#795b3d"/><path d="M75 209l23-11-12-21m339 32-23-11 12-21M75 541l23 11-12 21m339-32-23 11 12 21" fill="none" stroke="#795b3d"/><path d="M135 154Q250 30 365 154M135 596q115 124 230 0" fill="none" stroke="#92744e"/><circle cx="250" cy="140" r="6" fill="#997c53"/><path d="M250 595v43m-10-14h20" stroke="#997c53"/><g transform="translate(100 270)" style="color:#aa8b5e"><g fill="none" stroke="currentColor" stroke-width="2" stroke-linecap="round" stroke-linejoin="round"><circle cx="150" cy="102" r="37"/><path d="M150 20v28m-9-20h18M134 112l-17-13-29-3-22-18-19-4-24-31 7 40 23 25 34 18 38 12m41-26 17-13 29-3 22-18 19-4 24-31-7 40-23 25-34 18-38 12M29 71l29 27m-21-10 34 27m-24-8 36 25m-25-7 40 22m-25-6 44 22m154-92-29 27m21-10-34 27m24-8-36 25m25-7-40 22m25-6-44 22M144 100l-15-16-20-6-9-13 22 4 16 10 12 19m6 2 15-16 20-6 9-13-22 4-16 10-12 19M130 73l2-15 13 10m25 5-2-15-13 10M144 126l-13 42 19-13 19 13-13-42M144 160l-7 31 13-8 13 8-7-31"/><path d="M139 98l11-10 11 10-2 18-9 8-9-8Z"/><circle cx="145" cy="102" r="2"/><circle cx="155" cy="102" r="2"/><path d="M146 115h8m-4-6v4"/></g></g><rect width="500" height="750" fill="url(#grain)"/></svg>